<svg id="CREATION" xmlns="http://www.w3.org/2000/svg" viewBox="0 0 612 361.51"><defs><style>.cls-1{fill:#e7ba55;}</style></defs><path class="cls-1" d="M306.5,61.05,607.12,361.67A307.77,307.77,0,0,0,612,307C612,138,475,1,306,1S0,138,0,307a307.61,307.61,0,0,0,5,55.51Z" transform="translate(0 -1)"/><path class="cls-1" d="M23,255.76Q142.31,318,261.61,266.92L229.29,234.6C162.65,259,94,250.62,23,206.2Z" transform="translate(0 -1)"/><path class="cls-1" d="M350,266.84q119,50.66,238-11.42V205.86c-66.28,43.2-134.62,53.68-205.21,28.15Z" transform="translate(0 -1)"/></svg>